<?xml version="1.0" encoding="UTF-8" standalone="no"?>
<!-- Created with Inkscape (http://www.inkscape.org/) -->

<svg
   width="1920"
   height="634.77374"
   viewBox="0 0 508 167.95055"
   version="1.1"
   id="svg1"
   xml:space="preserve"
   xmlns:xlink="http://www.w3.org/1999/xlink"
   xmlns="http://www.w3.org/2000/svg"
   xmlns:svg="http://www.w3.org/2000/svg"><defs
     id="defs1"><linearGradient
       id="linearGradient1"><stop
         style="stop-color:#611e50;stop-opacity:1;"
         offset="0.12012421"
         id="stop1" /><stop
         style="stop-color:#bb418f;stop-opacity:1;"
         offset="0.47396368"
         id="stop3" /><stop
         style="stop-color:#240e54;stop-opacity:1;"
         offset="0.85340858"
         id="stop2" /></linearGradient><linearGradient
       xlink:href="#linearGradient1"
       id="linearGradient2"
       x1="255.01831"
       y1="118.09122"
       x2="255.01831"
       y2="284.08893"
       gradientUnits="userSpaceOnUse"
       gradientTransform="matrix(0.99919982,0,0,1,0.44246318,-0.44281006)" /></defs><g
     id="layer1"
     transform="translate(0,-117.79945)"><g
       id="g5"
       transform="matrix(0.99992922,0,0,1,-5.5491888e-6,0)"><rect
         style="display:inline;fill:url(#linearGradient2);fill-opacity:1;stroke:none;stroke-width:0.999599;stroke-linecap:round;stroke-linejoin:round"
         id="rect1"
         width="508.03595"
         height="167.95055"
         x="5.5495816e-06"
         y="117.79945" /><path
         id="rect5"
         d="M 5.5495816e-6,117.79945 H 508.03596 v 0.58872 H 5.5495816e-6 Z m 0,3.21894 H 508.03596 v 0.58872 H 5.5495816e-6 Z m 0,3.21894 H 508.03596 v 0.58872 H 5.5495816e-6 Z m 0,3.21893 H 508.03596 v 0.58872 H 5.5495816e-6 Z m 0,3.21894 H 508.03596 v 0.58872 H 5.5495816e-6 Z m 0,3.21893 H 508.03596 v 0.58872 H 5.5495816e-6 Z m 0,3.21894 H 508.03596 v 0.58872 H 5.5495816e-6 Z m 0,3.21894 H 508.03596 v 0.58872 H 5.5495816e-6 Z m 0,3.21893 H 508.03596 v 0.58872 H 5.5495816e-6 Z m 0,3.21894 H 508.03596 v 0.58872 H 5.5495816e-6 Z m 0,3.21894 H 508.03596 v 0.58872 H 5.5495816e-6 Z m 0,3.21893 H 508.03596 v 0.58872 H 5.5495816e-6 Z m 0,3.21894 H 508.03596 v 0.58872 H 5.5495816e-6 Z m 0,3.21893 H 508.03596 v 0.58873 H 5.5495816e-6 Z m 0,3.21894 H 508.03596 v 0.58872 H 5.5495816e-6 Z m 0,3.21894 H 508.03596 v 0.58871 H 5.5495816e-6 Z m 0,3.21893 H 508.03596 v 0.58872 H 5.5495816e-6 Z m 0,3.21894 H 508.03596 v 0.58872 H 5.5495816e-6 Z m 0,3.21893 H 508.03596 v 0.58873 H 5.5495816e-6 Z m 0,3.21894 H 508.03596 v 0.58872 H 5.5495816e-6 Z m 0,3.21894 H 508.03596 v 0.58872 H 5.5495816e-6 Z m 0,3.21893 H 508.03596 v 0.58872 H 5.5495816e-6 Z m 0,3.21894 H 508.03596 v 0.58872 H 5.5495816e-6 Z m 0,3.21894 H 508.03596 v 0.58871 H 5.5495816e-6 Z m 0,3.21893 H 508.03596 v 0.58872 H 5.5495816e-6 Z m 0,3.21894 H 508.03596 v 0.58872 H 5.5495816e-6 Z m 0,3.21893 H 508.03596 v 0.58873 H 5.5495816e-6 Z m 0,3.21894 H 508.03596 v 0.58872 H 5.5495816e-6 Z m 0,3.21894 H 508.03596 v 0.58871 H 5.5495816e-6 Z m 0,3.21893 H 508.03596 v 0.58872 H 5.5495816e-6 Z m 0,3.21894 H 508.03596 v 0.58872 H 5.5495816e-6 Z m 0,3.21893 H 508.03596 v 0.58873 H 5.5495816e-6 Z m 0,3.21894 H 508.03596 v 0.58872 H 5.5495816e-6 Z m 0,3.21894 H 508.03596 v 0.58871 H 5.5495816e-6 Z m 0,3.21894 H 508.03596 V 227.832 H 5.5495816e-6 Z m 0,3.21892 H 508.03596 v 0.58873 H 5.5495816e-6 Z m 0,3.21894 H 508.03596 v 0.58873 H 5.5495816e-6 Z m 0,3.21894 H 508.03596 v 0.58872 H 5.5495816e-6 Z m 0,3.21894 H 508.03596 v 0.58871 H 5.5495816e-6 Z m 0,3.21894 H 508.03596 v 0.58871 H 5.5495816e-6 Z m 0,3.21893 H 508.03596 v 0.58872 H 5.5495816e-6 Z m 0,3.21893 H 508.03596 v 0.58873 H 5.5495816e-6 Z m 0,3.21894 H 508.03596 v 0.58872 H 5.5495816e-6 Z"
         style="display:inline;opacity:1;fill:#240e54;fill-opacity:0.103402;stroke:none;stroke-width:0.99708;stroke-linecap:round;stroke-linejoin:round" /><path
         style="display:inline;fill:#240e54;fill-opacity:1;stroke:none;stroke-width:0.885556;stroke-linecap:round;stroke-linejoin:round"
         d="M 5.5495816e-6,250.62991 30.228822,214.19281 l 17.083513,15.19523 33.339423,-26.24165 19.405622,37.11683 7.48651,-10.8368 26.83663,25.33181 35.17775,-49.82103 24.884,14.15112 45.35511,-34.04518 42.08355,37.58458 21.4171,-12.31112 47.04305,30.59522 22.34419,-22.53379 32.93469,32.86757 35.02788,-35.82237 23.74802,31.0568 24.48489,-55.32014 19.15521,59.48051 V 285.75 H 5.5495816e-6 Z"
         id="path1" /><path
         style="display:inline;fill:#240e54;fill-opacity:0.51184;stroke:none;stroke-width:0.957451;stroke-linecap:round;stroke-linejoin:round"
         d="m 508.03596,232.65634 -30.22201,-30.57297 -17.07967,17.76668 -27.96698,-19.40601 -24.76618,32.12157 -7.48483,-12.67069 -26.83059,29.61865 -34.4276,-45.91118 -26.15719,23.27301 -55.34111,-30.48484 -27.02813,37.84322 -32.36862,-28.34042 -40.58932,27.43061 L 135.43458,206.97684 102.5073,245.40651 60.746545,207.79479 33.839975,235.43255 19.537883,197.14664 5.5495816e-6,232.65634 V 285.75 H 508.03596 Z"
         id="path3" /></g></g></svg>
